<svg width="76" height="17" viewBox="0 0 76 17" fill="none" xmlns="http://www.w3.org/2000/svg">
<path d="M3.31198 10.7999C3.75598 10.7999 4.12198 10.7279 4.40998 10.5839C4.69798 10.4279 4.84198 10.1999 4.84198 9.89992C4.84198 9.63592 4.74598 9.43192 4.55398 9.28792C4.37398 9.13192 4.04398 8.99392 3.56398 8.87392L2.53798 8.60392C1.74598 8.39992 1.15798 8.05792 0.773984 7.57792C0.401984 7.09792 0.215984 6.52792 0.215984 5.86792C0.215984 5.08792 0.485984 4.43392 1.02598 3.90592C1.56598 3.37792 2.39998 3.11392 3.52798 3.11392C3.98398 3.11392 4.46398 3.16792 4.96798 3.27592C5.47198 3.38392 5.99998 3.55792 6.55198 3.79792L5.95798 5.56192C5.45398 5.32192 4.99798 5.15392 4.58998 5.05792C4.18198 4.96192 3.82198 4.91392 3.50998 4.91392C2.65798 4.91392 2.23198 5.20192 2.23198 5.77792C2.23198 6.00592 2.30398 6.18592 2.44798 6.31792C2.60398 6.44992 2.88598 6.56992 3.29398 6.67792L4.31998 6.94792C5.19598 7.17592 5.83198 7.52392 6.22798 7.99192C6.63598 8.45992 6.83998 9.04792 6.83998 9.75592C6.83998 10.5959 6.55198 11.2799 5.97598 11.8079C5.41198 12.3359 4.51798 12.5999 3.29398 12.5999C2.24998 12.5999 1.15198 12.3599 -1.56164e-05 11.8799L0.557984 10.1699C1.12198 10.3979 1.63198 10.5599 2.08798 10.6559C2.54398 10.7519 2.95198 10.7999 3.31198 10.7999ZM12.871 12.5999C12.571 12.5999 12.265 12.5699 11.953 12.5099C11.653 12.4499 11.347 12.3659 11.035 12.2579V16.2539H8.96497V3.29392H10.927V4.53592C11.491 3.97192 11.971 3.59392 12.367 3.40192C12.763 3.20992 13.177 3.11392 13.609 3.11392C14.605 3.11392 15.373 3.48592 15.913 4.22992C16.453 4.97392 16.723 6.01792 16.723 7.36192V8.33392C16.723 9.64192 16.393 10.6799 15.733 11.4479C15.073 12.2159 14.119 12.5999 12.871 12.5999ZM13.051 5.03992C12.775 5.03992 12.481 5.12392 12.169 5.29192C11.869 5.44792 11.491 5.75392 11.035 6.20992V10.3859C11.623 10.6259 12.163 10.7459 12.655 10.7459C13.351 10.7459 13.849 10.5299 14.149 10.0979C14.449 9.66592 14.599 9.07792 14.599 8.33392V7.36192C14.599 6.55792 14.461 5.96992 14.185 5.59792C13.921 5.22592 13.543 5.03992 13.051 5.03992ZM21.0511 7.57792C21.0511 8.45392 21.2431 9.17392 21.6271 9.73792C22.0111 10.2899 22.6411 10.5659 23.5171 10.5659C23.8771 10.5659 24.2491 10.5179 24.6331 10.4219C25.0291 10.3259 25.5151 10.1639 26.0911 9.93592L26.7571 11.8079C26.1091 12.0959 25.5091 12.2999 24.9571 12.4199C24.4171 12.5399 23.8951 12.5999 23.3911 12.5999C22.3831 12.5999 21.5371 12.3839 20.8531 11.9519C20.1811 11.5199 19.6771 10.9259 19.3411 10.1699C19.0051 9.41392 18.8371 8.54992 18.8371 7.57792V5.00392C18.8371 4.03192 19.0051 3.16792 19.3411 2.41192C19.6771 1.65592 20.1811 1.06792 20.8531 0.647921C21.5371 0.215921 22.3831 -7.9155e-05 23.3911 -7.9155e-05C23.8831 -7.9155e-05 24.3931 0.0599211 24.9211 0.179922C25.4491 0.287922 26.0251 0.479922 26.6491 0.755922L25.9831 2.66392C25.4311 2.43592 24.9691 2.27392 24.5971 2.17792C24.2251 2.08192 23.8651 2.03392 23.5171 2.03392C22.6411 2.03392 22.0111 2.30992 21.6271 2.86192C21.2431 3.41392 21.0511 4.12792 21.0511 5.00392V7.57792ZM33.5368 5.18392C32.9728 5.18392 32.4328 5.27392 31.9168 5.45392C31.4128 5.62192 30.9268 5.89792 30.4588 6.28192V12.4199H28.3888V3.29392H30.3508V4.69792C30.9628 4.12192 31.5088 3.71392 31.9888 3.47392C32.4688 3.23392 32.9848 3.11392 33.5368 3.11392V5.18392ZM42.2797 11.8979C41.6557 12.1499 41.0677 12.3299 40.5157 12.4379C39.9637 12.5459 39.4417 12.5999 38.9497 12.5999C37.5937 12.5999 36.5677 12.2159 35.8717 11.4479C35.1757 10.6799 34.8277 9.65992 34.8277 8.38792V7.30792C34.8277 6.45592 34.9837 5.71792 35.2957 5.09392C35.6077 4.46992 36.0517 3.98392 36.6277 3.63592C37.2037 3.28792 37.8817 3.11392 38.6617 3.11392C39.2977 3.11392 39.8917 3.24592 40.4437 3.50992C41.0077 3.76192 41.4637 4.16392 41.8117 4.71592C42.1717 5.25592 42.3517 5.95192 42.3517 6.80392C42.3517 7.05592 42.3337 7.32592 42.2977 7.61392C42.2617 7.88992 42.2017 8.18392 42.1177 8.49592H36.8257C36.8497 9.23992 37.0357 9.79792 37.3837 10.1699C37.7317 10.5419 38.2897 10.7279 39.0577 10.7279C39.4657 10.7279 39.8857 10.6799 40.3177 10.5839C40.7617 10.4879 41.2177 10.3439 41.6857 10.1519L42.2797 11.8979ZM38.6617 4.85992C38.1097 4.85992 37.6777 5.03992 37.3657 5.39992C37.0657 5.74792 36.8917 6.25192 36.8437 6.91192H40.2997C40.3117 6.85192 40.3177 6.79792 40.3177 6.74992C40.3177 6.68992 40.3177 6.63592 40.3177 6.58792C40.3177 6.01192 40.1557 5.57992 39.8317 5.29192C39.5077 5.00392 39.1177 4.85992 38.6617 4.85992ZM51.6485 12.5099C51.0365 12.5099 50.5445 12.3839 50.1725 12.1319C49.8125 11.8799 49.5485 11.5679 49.3805 11.1959C48.8645 11.6759 48.3665 12.0299 47.8865 12.2579C47.4065 12.4859 46.8905 12.5999 46.3385 12.5999C45.5345 12.5999 44.9405 12.3419 44.5565 11.8259C44.1845 11.3099 43.9985 10.6559 43.9985 9.86392C43.9985 9.33592 44.0945 8.87392 44.2865 8.47792C44.4905 8.06992 44.8205 7.75192 45.2765 7.52392C45.7325 7.29592 46.3565 7.18192 47.1485 7.18192C47.4605 7.18192 47.7845 7.20592 48.1205 7.25392C48.4565 7.28992 48.7925 7.33792 49.1285 7.39792V6.33592C49.1285 5.83192 48.9905 5.48992 48.7145 5.30992C48.4385 5.11792 48.0665 5.02192 47.5985 5.02192C47.2385 5.02192 46.8425 5.06992 46.4105 5.16592C45.9905 5.26192 45.5345 5.41192 45.0425 5.61592L44.4485 3.85192C45.6605 3.35992 46.7585 3.11392 47.7425 3.11392C48.6305 3.11392 49.3145 3.26392 49.7945 3.56392C50.2865 3.86392 50.6285 4.25992 50.8205 4.75192C51.0125 5.24392 51.1085 5.77192 51.1085 6.33592V9.84592C51.1085 10.0259 51.1565 10.1999 51.2525 10.3679C51.3605 10.5239 51.5645 10.6019 51.8645 10.6019H52.0625V12.5099H51.6485ZM45.9965 9.82792C45.9965 10.1519 46.0685 10.4099 46.2125 10.6019C46.3565 10.7819 46.5665 10.8719 46.8425 10.8719C47.1185 10.8719 47.4305 10.7999 47.7785 10.6559C48.1265 10.5119 48.5765 10.1759 49.1285 9.64792V8.87392C48.5045 8.76592 47.8925 8.71192 47.2925 8.71192C46.8245 8.71192 46.4885 8.80792 46.2845 8.99992C46.0925 9.19192 45.9965 9.46792 45.9965 9.82792ZM59.3495 12.1139C59.0375 12.2579 58.6775 12.3719 58.2695 12.4559C57.8615 12.5519 57.4475 12.5999 57.0275 12.5999C56.3315 12.5999 55.7735 12.4559 55.3535 12.1679C54.9335 11.8799 54.6275 11.4779 54.4355 10.9619C54.2555 10.4459 54.1655 9.85792 54.1655 9.19792V5.09392H52.6895V3.29392H54.1655V0.917921H56.2355V3.29392H59.0795V5.09392H56.2355V9.19792C56.2355 9.74992 56.3375 10.1339 56.5415 10.3499C56.7575 10.5539 57.0635 10.6559 57.4595 10.6559C57.6515 10.6559 57.8555 10.6379 58.0715 10.6019C58.2995 10.5539 58.5515 10.4759 58.8275 10.3679L59.3495 12.1139ZM68.4838 7.30792V8.38792C68.4838 9.65992 68.1358 10.6799 67.4398 11.4479C66.7438 12.2159 65.7598 12.5999 64.4878 12.5999C63.2158 12.5999 62.2318 12.2159 61.5358 11.4479C60.8398 10.6799 60.4918 9.65992 60.4918 8.38792V7.30792C60.4918 6.03592 60.8338 5.02192 61.5178 4.26592C62.2138 3.49792 63.2038 3.11392 64.4878 3.11392C65.7718 3.11392 66.7558 3.49792 67.4398 4.26592C68.1358 5.02192 68.4838 6.03592 68.4838 7.30792ZM66.3598 7.30792C66.3598 6.57592 66.1978 6.00592 65.8738 5.59792C65.5498 5.17792 65.0878 4.96792 64.4878 4.96792C63.8878 4.96792 63.4258 5.17792 63.1018 5.59792C62.7778 6.00592 62.6158 6.57592 62.6158 7.30792V8.38792C62.6158 9.11992 62.7778 9.69592 63.1018 10.1159C63.4258 10.5359 63.8878 10.7459 64.4878 10.7459C65.0878 10.7459 65.5498 10.5359 65.8738 10.1159C66.1978 9.69592 66.3598 9.11992 66.3598 8.38792V7.30792ZM75.9528 5.18392C75.3888 5.18392 74.8488 5.27392 74.3328 5.45392C73.8288 5.62192 73.3428 5.89792 72.8748 6.28192V12.4199H70.8048V3.29392H72.7668V4.69792C73.3788 4.12192 73.9248 3.71392 74.4048 3.47392C74.8848 3.23392 75.4008 3.11392 75.9528 3.11392V5.18392Z" fill="white"/>
</svg>
